<mxfile host="app.diagrams.net" modified="2024-03-19T00:33:22.393Z" agent="Mozilla/5.0 (Windows NT 10.0; Win64; x64) AppleWebKit/537.36 (KHTML, like Gecko) Chrome/122.0.0.0 Safari/537.36" version="24.0.7" etag="h4Z92DuBAwwVIGhyXr0i" type="github">
  <diagram name="Page-1" id="c8Gpe8Ylq1SN86Nl-dQQ">
    <mxGraphModel>
      <root>
        <mxCell id="0" />
        <mxCell id="1" parent="0" />
      </root>
    </mxGraphModel>
  </diagram>
</mxfile>
